<svg xmlns="http://www.w3.org/2000/svg" xmlns:xlink="http://www.w3.org/1999/xlink" width="19" height="18.8173828125" viewBox="0 0 19 18.8173828125" fill="currentColor"><path d="M14.5348 17.2219C14.2883 17.2219 14.1248 17.0094 14.1248 16.8059C14.1248 13.3885 11.2953 10.5863 7.84479 10.5863L7.76479 10.5863C4.31428 10.5863 1.47479 13.3885 1.47479 16.8059C1.47479 17.0499 1.27018 17.2219 1.06479 17.2219C0.859396 17.2219 0.654785 17.0094 0.654785 16.8059C0.654785 13.7141 2.66735 10.997 5.62479 10.0614L5.87479 9.97228L5.62479 9.85343C4.22819 8.99903 3.40479 7.48949 3.40479 5.86218C3.40479 3.25852 5.54575 1.14795 8.17479 1.14795C10.8037 1.14795 12.9348 3.25852 12.9348 5.86218C12.9348 7.57088 11.9958 9.19832 10.4348 10.0119L10.1848 10.1406L10.4348 10.2199C13.187 11.2776 14.9448 13.8779 14.9448 16.7663C14.9448 17.0105 14.7402 17.2219 14.5348 17.2219ZM8.17479 1.99968C6.0387 1.99968 4.26479 3.74674 4.26479 5.86218C4.26479 7.97773 6.0387 9.73458 8.17479 9.73458C10.3108 9.73458 12.0748 7.97771 12.0748 5.86218C12.0748 3.74674 10.3108 1.99968 8.17479 1.99968Z" stroke-width="0.3"       ></path><path d="M5.41978 6.23325L5.33769 6.23325C5.09126 6.19262 4.92691 5.94855 4.96795 5.7044C5.37873 3.22277 7.3915 2.85659 7.47357 2.85659C7.72001 2.81585 7.96653 2.97861 8.00766 3.22268C8.04871 3.42609 7.88444 3.67023 7.63792 3.71088C7.55575 3.71088 6.15916 3.9957 5.8716 5.82632C5.83056 6.07049 5.62516 6.23325 5.41978 6.23325ZM7.30932 16.0784L7.59688 12.0916C7.59688 11.8475 7.80226 11.6441 8.08975 11.6441C8.33617 11.6441 8.58269 11.8475 8.58269 12.0916L8.87016 16.0784L8.04861 16.7294L7.30932 16.0784ZM13.0191 10.2202L12.8959 10.2202C12.6494 10.2202 12.4851 10.0168 12.4851 9.81333C12.4851 9.56919 12.6905 9.40661 12.8959 9.40661C14.4568 9.44726 15.7714 8.26741 15.8534 6.72147C15.8946 5.54162 15.1961 4.48399 14.1282 4.03644C13.9639 3.95505 13.7995 3.9144 13.6763 3.87375C13.4709 3.83301 13.3066 3.58896 13.3476 3.38553C13.3888 3.18212 13.6353 3.01935 13.8407 3.06018C14.046 3.10083 14.2514 3.18222 14.4567 3.2636C15.8533 3.8331 16.7571 5.25701 16.7159 6.72156C16.5928 8.67424 14.9907 10.2202 13.0191 10.2202Z"    ></path><path d="M18.0305 15.3868C17.784 15.3868 17.6198 15.1835 17.6198 14.9801C17.6608 13.7596 17.209 12.6204 16.3874 11.7255C15.5659 10.8303 14.4157 10.3015 13.1834 10.2609L12.8959 10.2609C12.6494 10.2609 12.4851 10.0575 12.4851 9.85408C12.4851 9.60993 12.6905 9.44727 12.8959 9.44727L13.1834 9.44727C14.6211 9.4879 15.9765 10.0982 16.9624 11.1559C17.9484 12.2136 18.4823 13.5968 18.4001 15.0207C18.4413 15.2241 18.277 15.3868 18.0305 15.3868Z"   ></path></svg>
