<svg xmlns="http://www.w3.org/2000/svg" xmlns:xlink="http://www.w3.org/1999/xlink" width="20" height="19.8076171875" viewBox="0 0 20 19.8076171875" fill="currentColor"><path d="M7.17499 5.03867L7.97499 4.58062L8.49999 5.21199C8.62499 5.18723 8.76249 5.17485 8.88749 5.17485L9.23749 4.41968L10.1375 4.65489L10.0625 5.48434C10.175 5.54624 10.275 5.62052 10.375 5.70718L11.15 5.42244L11.6125 6.21475L11.025 6.69756C11.075 6.8585 11.1125 7.01944 11.125 7.18038L11.775 7.47749L11.5375 8.36884L10.9125 8.30694C10.825 8.49263 10.7 8.67833 10.5625 8.82689L10.7625 9.35922L9.96249 9.81727L9.63749 9.42112C9.39999 9.50778 9.14999 9.54492 8.89999 9.53254L8.69999 9.97821L7.79999 9.743L7.84999 9.26018C7.63749 9.13638 7.43749 8.98783 7.27499 8.80213L6.79999 8.97545L6.33749 8.18314L6.78749 7.82413C6.73749 7.61367 6.72499 7.40321 6.74999 7.19275L6.17499 6.93278L6.41249 6.04143L7.12499 6.11571C7.21249 5.97953 7.32499 5.85574 7.44999 5.74432L7.18749 5.03867L7.17499 5.03867ZM9.48749 8.09648C9.50231 8.08807 9.51694 8.0793 9.53134 8.07019C9.54573 8.06108 9.55989 8.0516 9.57382 8.0418C9.58774 8.03199 9.60143 8.02185 9.61485 8.01139C9.62827 8.00092 9.64143 7.99013 9.65432 7.97901C9.66721 7.96789 9.67981 7.95647 9.69214 7.94475C9.70446 7.93303 9.71649 7.92102 9.72823 7.90869C9.73995 7.89637 9.75136 7.8838 9.76247 7.87094C9.77358 7.85807 9.78436 7.84494 9.79481 7.83155C9.80526 7.81817 9.81538 7.80453 9.82514 7.79064C9.83493 7.77677 9.84436 7.76265 9.85345 7.74832C9.86253 7.73398 9.87124 7.71942 9.8796 7.70466C9.88794 7.6899 9.89593 7.67493 9.90354 7.65978C9.91116 7.64464 9.91841 7.6293 9.92526 7.6138C9.93212 7.59831 9.93858 7.58264 9.94466 7.56682C9.95073 7.55101 9.95641 7.53506 9.96171 7.51896C9.967 7.50287 9.97188 7.48666 9.97636 7.47031C9.98085 7.45399 9.98493 7.43757 9.9886 7.42103C9.99227 7.40449 9.99553 7.38789 9.99837 7.3712C10.0012 7.3545 10.0037 7.33775 10.0057 7.32094C10.0077 7.30413 10.0093 7.28731 10.0105 7.27042C10.0116 7.25353 10.0124 7.23663 10.0127 7.2197C10.0131 7.20278 10.013 7.18587 10.0125 7.16894C10.012 7.15202 10.0111 7.13513 10.0098 7.11826C10.0084 7.10138 10.0067 7.08455 10.0045 7.06776C10.0024 7.05097 9.99977 7.03424 9.99677 7.01758C9.99378 7.00093 9.99036 6.98435 9.98655 6.96785C9.98274 6.95135 9.9785 6.93496 9.97388 6.91866C9.96925 6.90237 9.96421 6.8862 9.95878 6.87016C9.95335 6.85411 9.94753 6.83821 9.9413 6.82244C9.93507 6.80668 9.92846 6.79107 9.92147 6.77563C9.91448 6.76018 9.9071 6.74492 9.89934 6.72985C9.89159 6.71476 9.88348 6.69986 9.87499 6.68518C9.86649 6.6705 9.85764 6.65601 9.84844 6.64176C9.83925 6.6275 9.82968 6.61348 9.81977 6.59968C9.80987 6.58589 9.79964 6.57233 9.78907 6.55904C9.7785 6.54576 9.7676 6.53272 9.75637 6.51995C9.74514 6.50718 9.73362 6.49471 9.72178 6.4825C9.70995 6.4703 9.69782 6.45838 9.68538 6.44676C9.67296 6.43515 9.66024 6.42385 9.64725 6.41285C9.63427 6.40184 9.621 6.39116 9.60749 6.38081C9.59397 6.37046 9.5802 6.36045 9.56618 6.35075C9.55218 6.34108 9.53792 6.33175 9.52345 6.32274C9.50897 6.31376 9.49427 6.30512 9.47936 6.29684C9.46446 6.28858 9.44934 6.28067 9.43405 6.27313C9.41876 6.26558 9.40327 6.25841 9.38762 6.25162C9.37198 6.24483 9.35616 6.23843 9.34018 6.23241C9.32423 6.22639 9.30811 6.22076 9.29186 6.21552C9.27559 6.21029 9.25923 6.20545 9.24274 6.20102C9.22624 6.19657 9.20966 6.19252 9.19298 6.18889C9.17628 6.18525 9.15952 6.18203 9.14266 6.17922C9.12581 6.17639 9.10889 6.17398 9.09192 6.17198C9.07495 6.17 9.05796 6.16842 9.04091 6.16724C9.02386 6.16607 9.00678 6.16531 8.98969 6.16498C8.9726 6.16463 8.95553 6.16471 8.93845 6.16521C8.92136 6.1657 8.9043 6.1666 8.88727 6.16792C8.87022 6.16923 8.85323 6.17097 8.83628 6.17312C8.81932 6.17526 8.80243 6.17782 8.78561 6.1808C8.7688 6.18377 8.75206 6.18714 8.7354 6.19092C8.71874 6.1947 8.7022 6.19888 8.68573 6.20347C8.66928 6.20806 8.65296 6.21305 8.63675 6.21843C8.62055 6.2238 8.6045 6.22957 8.58858 6.23574C8.57266 6.2419 8.5569 6.24845 8.54132 6.25537C8.52571 6.2623 8.5103 6.2696 8.49509 6.27729C8.47985 6.28496 8.46481 6.293 8.44999 6.30141C8.43516 6.30982 8.42054 6.31858 8.40614 6.3277C8.39175 6.33681 8.37759 6.34628 8.36366 6.35609C8.34973 6.3659 8.33604 6.37604 8.32262 6.3865C8.30921 6.39697 8.29604 6.40776 8.28315 6.41888C8.27026 6.43 8.25766 6.44142 8.24534 6.45314C8.23302 6.46486 8.22098 6.47687 8.20925 6.48919C8.19753 6.50152 8.18612 6.51409 8.17501 6.52695C8.16389 6.53982 8.15311 6.55295 8.14266 6.56634C8.13221 6.57972 8.12209 6.59336 8.11231 6.60725C8.10255 6.62112 8.09312 6.63524 8.08403 6.64957C8.07495 6.66391 8.06624 6.67847 8.05788 6.69323C8.04952 6.70799 8.04154 6.72296 8.03393 6.73811C8.02632 6.75325 8.01908 6.76859 8.01221 6.78409C8.00537 6.79958 7.9989 6.81525 7.99282 6.83107C7.98674 6.84687 7.98106 6.86283 7.97577 6.87893C7.97048 6.89504 7.96559 6.91125 7.9611 6.92758C7.95662 6.9439 7.95255 6.96032 7.94887 6.97686C7.9452 6.9934 7.94195 7.01 7.93911 7.02669C7.93626 7.04338 7.93382 7.06014 7.9318 7.07695C7.9298 7.09375 7.9282 7.11058 7.92702 7.12747C7.92583 7.14436 7.92507 7.16126 7.92473 7.17819C7.92438 7.19512 7.92446 7.21202 7.92497 7.22895C7.92546 7.24587 7.92637 7.26276 7.9277 7.27963C7.92903 7.29651 7.93078 7.31334 7.93296 7.33013C7.93512 7.34692 7.9377 7.36365 7.94071 7.38031C7.9437 7.39696 7.94711 7.41354 7.95093 7.43004C7.95474 7.44654 7.95897 7.46292 7.9636 7.47923C7.96824 7.49552 7.97327 7.51169 7.9787 7.52773C7.98413 7.54378 7.98995 7.55968 7.99618 7.57545C8.0024 7.59121 8.00901 7.60682 8.016 7.62226C8.023 7.63771 8.03037 7.65297 8.03813 7.66804C8.04588 7.68313 8.054 7.69803 8.06249 7.71271C8.07098 7.72739 8.07982 7.74188 8.08903 7.75613C8.09824 7.77039 8.10779 7.78441 8.1177 7.7982C8.1276 7.812 8.13784 7.82556 8.14841 7.83885C8.15897 7.85213 8.16987 7.86517 8.1811 7.87794C8.19233 7.89071 8.20386 7.90318 8.21569 7.91539C8.22753 7.92759 8.23966 7.93951 8.2521 7.95113C8.26454 7.96274 8.27723 7.97404 8.29022 7.98504C8.30321 7.99605 8.31647 8.00673 8.32999 8.01708C8.3435 8.02742 8.35727 8.03745 8.3713 8.04714C8.3853 8.05681 8.39956 8.06615 8.41403 8.07514C8.4285 8.08414 8.44321 8.09277 8.45811 8.10105C8.47301 8.10931 8.48813 8.11722 8.50343 8.12476C8.51872 8.13231 8.53421 8.13948 8.54985 8.14627C8.5655 8.15306 8.58132 8.15946 8.59729 8.16548C8.61325 8.17149 8.62936 8.17712 8.64561 8.18237C8.66186 8.18761 8.67823 8.19244 8.69473 8.19689C8.71122 8.20132 8.7278 8.20537 8.7445 8.209C8.7612 8.21264 8.77796 8.21587 8.79481 8.21867C8.81167 8.2215 8.82858 8.22392 8.84555 8.22591C8.86253 8.2279 8.87952 8.22947 8.89657 8.23065C8.91362 8.23183 8.93069 8.23258 8.94778 8.23291C8.96487 8.23326 8.98194 8.23318 8.99903 8.2327C9.01612 8.23219 9.03317 8.23129 9.0502 8.22997C9.06725 8.22865 9.08425 8.22691 9.1012 8.22477C9.11815 8.22262 9.13505 8.22007 9.15186 8.21709C9.16868 8.21413 9.18542 8.21074 9.20208 8.20697C9.21874 8.2032 9.23528 8.199 9.25175 8.19442C9.26819 8.18983 9.28452 8.18484 9.30071 8.17946C9.31692 8.17409 9.33298 8.16832 9.34889 8.16215C9.36481 8.15598 9.38057 8.14944 9.39616 8.14252C9.41177 8.13559 9.42718 8.12828 9.44239 8.1206C9.45762 8.11292 9.47266 8.10489 9.48749 8.09648Z"   fill="#333333" ></path><path d="M5 16.0939C5 16.7748 5.5625 17.3318 6.25 17.3318L16.25 17.3318C16.9375 17.3318 17.5 16.7748 17.5 16.0939L17.5 3.71406C17.5 3.03317 16.9375 2.47607 16.25 2.47607L16.25 14.8559C16.25 15.5368 15.6875 16.0939 15 16.0939L5 16.0939Z"   fill="#333333" ></path><path d="M5 11.7608C5 11.4142 5.275 11.1418 5.625 11.1418L11.875 11.1418C12.225 11.1418 12.5 11.4142 12.5 11.7608C12.5 12.1075 12.225 12.3798 11.875 12.3798L5.625 12.3798C5.275 12.3798 5 12.1075 5 11.7608Z"   fill="#333333" ></path><path d="M13.75 14.8559L3.75 14.8559C3.0625 14.8559 2.5 14.2988 2.5 13.6179L2.5 3.71406C2.5 3.03317 3.0625 2.47607 3.75 2.47607L13.75 2.47607C14.4375 2.47607 15 3.03317 15 3.71406L15 13.6179C15 14.2988 14.4375 14.8559 13.75 14.8559ZM3.75 3.71406L3.75 13.6179L13.75 13.6179L13.75 3.71406L3.75 3.71406Z"  ></path></svg>
